<svg height="526" width="720" xmlns="http://www.w3.org/2000/svg">
<rect height="526" fill="#555" width="720"></rect>
<text fill="#7f7" font-family="Courier New" font-size="12" xml:space="preserve">
<tspan x="10" y="26">3 megabytes installed</tspan>
<tspan x="10" y="42"></tspan>
<tspan x="10" y="58">node_modules</tspan>
<tspan x="10" y="74">└─┬ accountdown@4.1.0 </tspan>
<tspan x="10" y="90">  ├─┬ bytewise@0.7.1 </tspan>
<tspan x="10" y="106">  │ └─┬ bops@0.1.1 </tspan>
<tspan x="10" y="122">  │   ├── base64-js@0.0.2 </tspan>
<tspan x="10" y="138">  │   └── to-utf8@0.0.1 </tspan>
<tspan x="10" y="154">  ├── defined@0.0.0 </tspan>
<tspan x="10" y="170">  ├── isarray@0.0.1 </tspan>
<tspan x="10" y="186">  ├─┬ level-create-batch@1.1.0 </tspan>
<tspan x="10" y="202">  │ └── level-lock@1.0.1 </tspan>
<tspan x="10" y="218">  ├─┬ levelup-defaults@1.0.2 </tspan>
<tspan x="10" y="234">  │ └─┬ levelup@0.19.1 </tspan>
<tspan x="10" y="250">  │   ├── bl@0.8.2 </tspan>
<tspan x="10" y="266">  │   ├─┬ deferred-leveldown@0.2.0 </tspan>
<tspan x="10" y="282">  │   │ └── abstract-leveldown@0.12.4 </tspan>
<tspan x="10" y="298">  │   ├── errno@0.1.4 </tspan>
<tspan x="10" y="314">  │   ├── prr@0.0.0 </tspan>
<tspan x="10" y="330">  │   ├── semver@5.1.1 </tspan>
<tspan x="10" y="346">  │   └── xtend@3.0.0 </tspan>
<tspan x="10" y="362">  ├─┬ read-only-stream@1.1.1 </tspan>
<tspan x="10" y="378">  │ ├─┬ readable-stream@1.0.34 </tspan>
<tspan x="10" y="394">  │ │ ├── core-util-is@1.0.2 </tspan>
<tspan x="10" y="410">  │ │ ├── inherits@2.0.3 </tspan>
<tspan x="10" y="426">  │ │ └── string_decoder@0.10.31 </tspan>
<tspan x="10" y="442">  │ └─┬ readable-wrap@1.0.0 </tspan>
<tspan x="10" y="458">  │   └── readable-stream@1.1.14 </tspan>
<tspan x="10" y="474">  └─┬ through2@1.1.1 </tspan>
<tspan x="10" y="490">    ├── readable-stream@1.1.14 </tspan>
<tspan x="10" y="506">    └── xtend@4.0.1</tspan>
</text>
</svg>
